# xmcd
#
# Track frame offsets: 
#        150
#        11366
#        28416
#        42424
#        65108
#        81472
#        96089
#        109535
#        123556
#        145911
#        155733
#        173339
#        185157
#        201232
#        215941
#        235815
#        251610
#        264413
#        274938
#
# Disc length: 3795 seconds
#
# Revision: 0
# Processed by: cddbd v1.5.2PL0 Copyright (c) Steve Scherf et al.
# Submitted via: ExactAudioCopy v0.99pb5
#
DISCID=220ed113
DTITLE=Various Artist - Nashville Music Express
DYEAR=1900
DGENRE=Country
TTITLE0=If You Can Find
TTITLE1=Blame It On Your Heart
TTITLE2=Goldie
TTITLE3=I Should Have Been True
TTITLE4=The Day El Paso Died
TTITLE5=Lets Can Spend Your M
TTITLE6=The KingOf Fools
TTITLE7=Don't Think Twice
TTITLE8=Red Moon Over Lugano
TTITLE9=I Don't Care
TTITLE10=Even Cowgirls Get The
TTITLE11=Excuse Me
TTITLE12=The Sun Shines Again
TTITLE13=Stayin' In Love
TTITLE14=Down At The Twist And
TTITLE15=Clean Shirt
TTITLE16=Streets Of Bakersfield
TTITLE17=Wrong Side Of Love
TTITLE18=Bingo
EXTD=
EXTT0=
EXTT1=
EXTT2=
EXTT3=
EXTT4=
EXTT5=
EXTT6=
EXTT7=
EXTT8=
EXTT9=
EXTT10=
EXTT11=
EXTT12=
EXTT13=
EXTT14=
EXTT15=
EXTT16=
EXTT17=
EXTT18=
PLAYORDER=
